<svg width="220" height="60" viewBox="0 0 100 25" data-name="Flat Color" xmlns="http://www.w3.org/2000/svg" class="icon flat-color">
  <path d="M18 11.74a1 1 0 0 0-.52-.63l-3.39-1.68.91-6.29a1 1 0 0 0-1.78-.75l-7 9a1 1 0 0 0-.18.87 1.05 1.05 0 0 0 .6.67l4.27 1.71-.91 6.22a1 1 0 0 0 .63 1.07.9.9 0 0 0 .37.07 1 1 0 0 0 .83-.45l6-9a1 1 0 0 0 .17-.81" style="fill:#5a3bff"/>
  <text x="22" y="17" font-family="'Outfit', sans-serif" font-size="15" fill="#5A3BFF" font-weight="700" letter-spacing=".5">
    Sociooo
  </text>
</svg>
